# xmcd CD database file
#
# Track frame offsets:
#	150
#	16017
#	41900
#	55635
#	69025
#	81340
#	104985
#	118457
#	136160
#	157395
#	180910
#	195802
#	202295
#
# Disc length: 2898 seconds
#
# Revision: 0
# Processed by: cddbd v1.5.1PL2 Copyright (c) Steve Scherf et al.
# Submitted via: CDex 1.51
#
DISCID=b60b500d
DTITLE=Various Artist - Apple of her eye 〜りんごの子守唄
DYEAR=2005
DGENRE=Pop
TTITLE0=Here Comes The Sun/畠山美由紀
TTITLE1=Across The Univerce/chie
TTITLE2=Julia/イノトモ
TTITLE3=Yesterday/アン・サリー
TTITLE4=I Will/原田郁子
TTITLE5=Sun King/noon
TTITLE6=In My Life - inst
TTITLE7=Ask Me Why/ボファーナ
TTITLE8=Dear Prudence/中納良恵
TTITLE9=Honey Pie/首里フジコ
TTITLE10=Because/湯川潮音
TTITLE11=I'll Follow The Sun - inst
TTITLE12=Goodnight/アン・サリー
EXTD=YEAR: ２００５
EXTT0=
EXTT1=
EXTT2=
EXTT3=
EXTT4=
EXTT5=
EXTT6=
EXTT7=
EXTT8=
EXTT9=
EXTT10=
EXTT11=
EXTT12=
PLAYORDER=
